<svg width="59" height="20" viewBox="0 0 59 20" fill="none" xmlns="http://www.w3.org/2000/svg">
<path d="M58.8503 6.97101V17.499H54.7217V6.97101H58.8503ZM54.7217 5.93886V3.04883H58.8503V5.93886H54.7217Z" fill="#54A4A0"/>
<path d="M46.1976 12.4203C46.1976 13.0464 46.2664 13.535 46.404 13.8859C46.6518 14.4639 47.1472 14.7529 47.8904 14.7529C48.0349 14.7254 48.1725 14.7116 48.3032 14.7116C49.184 14.5396 49.6244 13.7483 49.6244 12.3377C49.5968 11.2987 49.5005 10.7069 49.3354 10.5624C49.3354 10.2114 48.895 9.99126 48.0142 9.9018H47.7665C47.5669 9.9018 47.3192 9.94309 47.0233 10.0257C46.4729 10.3904 46.1976 11.0785 46.1976 12.09V12.4203ZM46.6931 17.7668C46.0325 17.7668 45.3719 17.643 44.7113 17.3952C42.7846 16.425 41.8213 14.6704 41.8213 12.1313V12.0074C41.8213 10.9821 42.0552 10.0601 42.5232 9.24122C43.5347 7.69987 44.8558 6.9292 46.4866 6.9292H47.0233C47.8972 6.9292 48.7298 7.25949 49.5212 7.92007V6.97048H53.6498L53.6394 17.4985H49.5005V16.7759H49.4592C48.6679 17.4365 47.7459 17.7668 46.6931 17.7668Z" fill="#54A4A0"/>
<path d="M36.2243 10.4287L38.4951 6.97101H42.9333L39.4756 12.235L42.9333 17.499H38.4951L36.2243 14.0413V17.499H32.0957V3.04883H36.2243V10.4287Z" fill="#54A4A0"/>
<path d="M23.8396 10.996H27.6379V10.965C27.6379 10.676 27.4315 10.3629 27.0186 10.0257C26.6402 9.83307 26.2548 9.73673 25.8626 9.73673C24.741 9.73673 24.0667 10.1565 23.8396 10.996ZM25.7388 6.61963C28.6357 6.61963 30.4798 8.11969 31.2711 11.1198C31.4087 11.6909 31.4775 12.3962 31.4775 13.2357V13.4318H23.8809V13.4731C24.108 14.0511 24.4383 14.4468 24.8718 14.6601C25.2777 14.8734 25.6631 14.9801 26.0278 14.9801H26.1723C26.6539 14.9801 27.115 14.7048 27.5554 14.1544H31.2711V14.1956C29.9018 16.604 28.1678 17.8082 26.0691 17.8082C24.1149 17.8082 22.6148 17.2302 21.5689 16.0742C20.523 14.9113 20 13.6452 20 12.2758C20 10.6863 20.5505 9.35484 21.6514 8.2814C22.7524 7.20107 24.1149 6.64715 25.7388 6.61963Z" fill="#54A4A0"/>
<path d="M10.2384 14.1371C9.81386 13.7067 9.34405 13.3559 8.84378 13.0817C8.45335 12.8684 8.33151 12.322 8.64533 12.0039L10.2384 10.3872C12.5773 8.01446 12.5773 4.15225 10.2384 1.77954C7.89954 -0.593179 4.09307 -0.593179 1.75417 1.77954C-0.584724 4.15225 -0.584724 8.01446 1.75417 10.3872C2.16952 10.8082 2.62364 11.1553 3.11007 11.4238C3.49496 11.6362 3.6251 12.1733 3.3242 12.497L2.07169 13.8415C1.96093 13.9397 1.85016 14.0379 1.75325 14.1362C1.57695 14.3149 1.41451 14.5011 1.26775 14.6929C1.0453 14.982 1.17176 15.3927 1.50127 15.5433L2.5978 16.0458L4.00907 16.6913L4.15583 16.7568C4.20014 16.7765 4.24813 16.7606 4.28505 16.7306C4.29336 16.7231 4.30444 16.7166 4.31182 16.7082C5.25421 15.7651 6.76702 15.7698 7.69094 16.7203C8.10814 17.1432 8.34259 17.6999 8.38689 18.2622C8.4072 18.5233 8.54195 18.7731 8.77732 18.8807L11.1116 19.9473C11.4411 20.0979 11.8297 19.922 11.8962 19.5618C12.2506 17.6578 11.6986 15.606 10.2384 14.1371ZM5.98523 9.36361V8.90891C5.97969 8.88552 5.976 8.86119 5.976 8.83593C5.976 8.6619 5.8357 8.5225 5.66495 8.49911C5.43604 8.46823 5.20991 8.40274 4.99392 8.3045C4.97269 8.29514 4.95146 8.28579 4.93023 8.27643C4.92931 8.27643 4.92747 8.2755 4.92654 8.27456C4.65333 8.14919 4.39581 7.97516 4.17152 7.74875C4.16968 7.74687 4.17152 7.74313 4.17337 7.74313C4.17522 7.74313 4.17706 7.73939 4.17522 7.73752C3.1756 6.71864 3.17745 5.07383 4.18075 4.07179C5.18591 3.0529 6.81132 3.0529 7.8017 4.07179C8.80686 5.09067 8.80686 6.73828 7.8017 7.7422L6.20675 9.45156C6.12645 9.53764 5.98431 9.47963 5.98431 9.36174L5.98523 9.36361Z" fill="#F37640"/>
</svg>
